<?xml version="1.0" standalone="no"?>
<svg viewBox="0 0 200 200" xmlns="http://www.w3.org/2000/svg">
  <path fill="#4E4E4E" d="M44.3,-77.7C57.3,-69.2,67.7,-57.1,75.8,-43.6C83.8,-30,89.6,-15,90.8,0.7C92,16.4,88.6,32.8,80,45.5C71.4,58.2,57.7,67.1,43.5,75.3C29.3,83.5,14.7,90.9,-0.8,92.3C-16.2,93.6,-32.4,88.8,-45.8,80.2C-59.2,71.6,-70,59.1,-76.9,45.1C-83.9,31,-87.1,15.5,-86.7,0.2C-86.4,-15.1,-82.5,-30.3,-75,-43.4C-67.6,-56.5,-56.5,-67.6,-43.4,-76.1C-30.3,-84.5,-15.2,-90.2,0.2,-90.6C15.6,-91.1,31.3,-86.1,44.3,-77.7Z" transform="translate(100 100)" />
</svg>
